<svg xmlns="http://www.w3.org/2000/svg" viewBox="0 0 512 512" role="img" aria-label="OLife'S">
  <rect width="512" height="512" rx="96" fill="#3b82f6"/>
  <g transform="translate(96 112)" fill="#ffffff">
    <path d="M40 0h240c22 0 40 18 40 40v208c0 22-18 40-40 40H40c-22 0-40-18-40-40V40C0 18 18 0 40 0zm0 32c-4 0-8 4-8 8v208c0 4 4 8 8 8h240c4 0 8-4 8-8V40c0-4-4-8-8-8H40z"/>
    <rect x="64" y="64" width="192" height="20" rx="6"/>
    <rect x="64" y="108" width="160" height="20" rx="6"/>
    <rect x="64" y="152" width="192" height="20" rx="6"/>
    <rect x="64" y="196" width="120" height="20" rx="6"/>
  </g>
</svg>
